<svg width="12" height="2" viewBox="0 0 12 2" fill="none" xmlns="http://www.w3.org/2000/svg">
<path d="M9.66683 1C9.66683 0.734783 9.77219 0.48043 9.95972 0.292893C10.1473 0.105357 10.4016 0 10.6668 0C10.932 0 11.1864 0.105357 11.3739 0.292893C11.5615 0.48043 11.6668 0.734783 11.6668 1C11.6668 1.26522 11.5615 1.51957 11.3739 1.70711C11.1864 1.89464 10.932 2 10.6668 2C10.4016 2 10.1473 1.89464 9.95972 1.70711C9.77219 1.51957 9.66683 1.26522 9.66683 1ZM5.00016 1C5.00016 0.734783 5.10552 0.48043 5.29306 0.292893C5.48059 0.105357 5.73495 0 6.00016 0C6.26538 0 6.51973 0.105357 6.70727 0.292893C6.89481 0.48043 7.00016 0.734783 7.00016 1C7.00016 1.26522 6.89481 1.51957 6.70727 1.70711C6.51973 1.89464 6.26538 2 6.00016 2C5.73495 2 5.48059 1.89464 5.29306 1.70711C5.10552 1.51957 5.00016 1.26522 5.00016 1ZM0.333496 1C0.333496 0.734783 0.438853 0.48043 0.626389 0.292893C0.813926 0.105357 1.06828 0 1.3335 0C1.59871 0 1.85307 0.105357 2.0406 0.292893C2.22814 0.48043 2.3335 0.734783 2.3335 1C2.3335 1.26522 2.22814 1.51957 2.0406 1.70711C1.85307 1.89464 1.59871 2 1.3335 2C1.06828 2 0.813926 1.89464 0.626389 1.70711C0.438853 1.51957 0.333496 1.26522 0.333496 1Z" fill="#667085"/>
</svg>
