<svg width="20" height="20" viewBox="0 0 20 20" fill="none" xmlns="http://www.w3.org/2000/svg">
<g clip-path="url(#clip0_425_9831)">
<mask id="mask0_425_9831" style="mask-type:luminance" maskUnits="userSpaceOnUse" x="0" y="0" width="20" height="20">
<path d="M20 0H0V20H20V0Z" fill="white"/>
</mask>
<g mask="url(#mask0_425_9831)">
<path d="M17.4998 9.79169H2.49984C1.69984 9.79169 1.0415 9.13335 1.0415 8.33335V5.56671C1.0415 5.00004 1.43315 4.42504 1.95815 4.21671L9.45817 1.21674C9.77484 1.09174 10.2248 1.09174 10.5415 1.21674L18.0415 4.21671C18.5665 4.42504 18.9582 5.00838 18.9582 5.56671V8.33335C18.9582 9.13335 18.2998 9.79169 17.4998 9.79169ZM9.99984 2.36674C9.9665 2.36674 9.93317 2.36669 9.9165 2.37503L2.42481 5.37506C2.37481 5.40006 2.2915 5.50838 2.2915 5.56671V8.33335C2.2915 8.45002 2.38317 8.54169 2.49984 8.54169H17.4998C17.6165 8.54169 17.7082 8.45002 17.7082 8.33335V5.56671C17.7082 5.50838 17.6332 5.40006 17.5748 5.37506L10.0748 2.37503C10.0582 2.36669 10.0332 2.36674 9.99984 2.36674Z" fill="#525356"/>
<path d="M18.3332 18.9583H1.6665C1.32484 18.9583 1.0415 18.6749 1.0415 18.3333V15.8333C1.0415 15.0333 1.69984 14.3749 2.49984 14.3749H17.4998C18.2998 14.3749 18.9582 15.0333 18.9582 15.8333V18.3333C18.9582 18.6749 18.6748 18.9583 18.3332 18.9583ZM2.2915 17.7083H17.7082V15.8333C17.7082 15.7166 17.6165 15.6249 17.4998 15.6249H2.49984C2.38317 15.6249 2.2915 15.7166 2.2915 15.8333V17.7083Z" fill="#525356"/>
<path d="M3.33301 15.625C2.99134 15.625 2.70801 15.3416 2.70801 15V9.16663C2.70801 8.82496 2.99134 8.54163 3.33301 8.54163C3.67467 8.54163 3.95801 8.82496 3.95801 9.16663V15C3.95801 15.3416 3.67467 15.625 3.33301 15.625Z" fill="#525356"/>
<path d="M6.6665 15.625C6.32484 15.625 6.0415 15.3416 6.0415 15V9.16663C6.0415 8.82496 6.32484 8.54163 6.6665 8.54163C7.00817 8.54163 7.2915 8.82496 7.2915 9.16663V15C7.2915 15.3416 7.00817 15.625 6.6665 15.625Z" fill="#525356"/>
<path d="M9.99976 15.625C9.65809 15.625 9.37476 15.3416 9.37476 15V9.16663C9.37476 8.82496 9.65809 8.54163 9.99976 8.54163C10.3414 8.54163 10.6248 8.82496 10.6248 9.16663V15C10.6248 15.3416 10.3414 15.625 9.99976 15.625Z" fill="#525356"/>
<path d="M13.333 15.625C12.9913 15.625 12.708 15.3416 12.708 15V9.16663C12.708 8.82496 12.9913 8.54163 13.333 8.54163C13.6747 8.54163 13.958 8.82496 13.958 9.16663V15C13.958 15.3416 13.6747 15.625 13.333 15.625Z" fill="#525356"/>
<path d="M16.6665 15.625C16.3248 15.625 16.0415 15.3416 16.0415 15V9.16663C16.0415 8.82496 16.3248 8.54163 16.6665 8.54163C17.0082 8.54163 17.2915 8.82496 17.2915 9.16663V15C17.2915 15.3416 17.0082 15.625 16.6665 15.625Z" fill="#525356"/>
<path d="M19.1663 18.9583H0.833008C0.491341 18.9583 0.208008 18.6749 0.208008 18.3333C0.208008 17.9916 0.491341 17.7083 0.833008 17.7083H19.1663C19.508 17.7083 19.7913 17.9916 19.7913 18.3333C19.7913 18.6749 19.508 18.9583 19.1663 18.9583Z" fill="#525356"/>
<path d="M9.99976 7.70828C8.96642 7.70828 8.12476 6.86662 8.12476 5.83328C8.12476 4.79995 8.96642 3.95828 9.99976 3.95828C11.0331 3.95828 11.8748 4.79995 11.8748 5.83328C11.8748 6.86662 11.0331 7.70828 9.99976 7.70828ZM9.99976 5.20828C9.65809 5.20828 9.37476 5.49162 9.37476 5.83328C9.37476 6.17495 9.65809 6.45828 9.99976 6.45828C10.3414 6.45828 10.6248 6.17495 10.6248 5.83328C10.6248 5.49162 10.3414 5.20828 9.99976 5.20828Z" fill="#525356"/>
</g>
</g>
<defs>
<clipPath id="clip0_425_9831">
<rect width="20" height="20" fill="white"/>
</clipPath>
</defs>
</svg>
