<svg width="16" height="16" viewBox="0 0 16 16" fill="none" xmlns="http://www.w3.org/2000/svg">
<g clip-path="url(#clip0_1096_2639)">
<path d="M3.53343 6.5L7.53343 10.4667C7.59275 10.5313 7.66487 10.5829 7.74521 10.6183C7.82554 10.6536 7.91234 10.6718 8.00009 10.6718C8.08785 10.6718 8.17464 10.6536 8.25498 10.6183C8.33531 10.5829 8.40743 10.5313 8.46676 10.4667L12.4668 6.5C12.5702 6.40902 12.6428 6.28825 12.6748 6.15429C12.7068 6.02033 12.6965 5.87976 12.6454 5.75188C12.5942 5.62401 12.5047 5.51511 12.3892 5.44017C12.2736 5.36522 12.1377 5.3279 12.0001 5.33333H4.00009C3.86248 5.3279 3.72655 5.36522 3.61101 5.44017C3.49546 5.51511 3.40596 5.62401 3.35481 5.75188C3.30366 5.87976 3.29337 6.02033 3.32535 6.15429C3.35734 6.28825 3.43003 6.40902 3.53343 6.5Z" fill="#646569"/>
</g>
<defs>
<clipPath id="clip0_1096_2639">
<rect width="16" height="16" fill="white"/>
</clipPath>
</defs>
</svg>
