<svg width="20" height="20" viewBox="0 0 20 20" fill="none" xmlns="http://www.w3.org/2000/svg">
<g clip-path="url(#clip0_1096_2635)">
<path d="M8.01115 19.9525C8.27572 20.0656 8.58334 19.9712 8.73787 19.7271L15.7691 8.55521C15.8251 8.46656 15.8563 8.36452 15.8594 8.25972C15.8625 8.15492 15.8374 8.05121 15.7868 7.95939C15.7362 7.86758 15.6619 7.79102 15.5716 7.7377C15.4813 7.68439 15.3784 7.65626 15.2736 7.65626H10.5809L12.3262 0.730117C12.3965 0.450312 12.254 0.161327 11.9891 0.0474593C11.7259 -0.0658222 11.4163 0.0291389 11.2624 0.272889L4.23114 11.4448C4.17517 11.5334 4.144 11.6355 4.14088 11.7403C4.13777 11.8451 4.16283 11.9488 4.21344 12.0406C4.26406 12.1324 4.33837 12.209 4.42865 12.2623C4.51892 12.3156 4.62184 12.3437 4.72669 12.3437H9.41935L7.67412 19.2699C7.60372 19.5497 7.74619 19.8387 8.01115 19.9525Z" fill="#646569"/>
</g>
<defs>
<clipPath id="clip0_1096_2635">
<rect width="20" height="20" fill="white"/>
</clipPath>
</defs>
</svg>
