<svg width="20" height="20" viewBox="0 0 20 20" fill="none" xmlns="http://www.w3.org/2000/svg">
<path d="M7.03038 9.25772H4.06129C3.4707 9.25772 2.9043 9.02311 2.48669 8.6055C2.06908 8.18789 1.83447 7.62149 1.83447 7.0309V4.06181C1.83447 3.47122 2.06908 2.90482 2.48669 2.48721C2.9043 2.0696 3.4707 1.83499 4.06129 1.83499H7.03038C7.62097 1.83499 8.18737 2.0696 8.60498 2.48721C9.02259 2.90482 9.2572 3.47122 9.2572 4.06181V7.0309C9.2572 7.62149 9.02259 8.18789 8.60498 8.6055C8.18737 9.02311 7.62097 9.25772 7.03038 9.25772ZM4.06129 3.31954C3.86443 3.31954 3.67563 3.39774 3.53642 3.53694C3.39722 3.67615 3.31902 3.86495 3.31902 4.06181V7.0309C3.31902 7.22776 3.39722 7.41656 3.53642 7.55577C3.67563 7.69497 3.86443 7.77317 4.06129 7.77317H7.03038C7.22724 7.77317 7.41604 7.69497 7.55525 7.55577C7.69445 7.41656 7.77265 7.22776 7.77265 7.0309V4.06181C7.77265 3.86495 7.69445 3.67615 7.55525 3.53694C7.41604 3.39774 7.22724 3.31954 7.03038 3.31954H4.06129ZM15.9377 9.25772H12.9686C12.378 9.25772 11.8116 9.02311 11.394 8.6055C10.9764 8.18789 10.7417 7.62149 10.7417 7.0309V4.06181C10.7417 3.47122 10.9764 2.90482 11.394 2.48721C11.8116 2.0696 12.378 1.83499 12.9686 1.83499H15.9377C16.5282 1.83499 17.0946 2.0696 17.5123 2.48721C17.9299 2.90482 18.1645 3.47122 18.1645 4.06181V7.0309C18.1645 7.62149 17.9299 8.18789 17.5123 8.6055C17.0946 9.02311 16.5282 9.25772 15.9377 9.25772ZM12.9686 3.31954C12.7717 3.31954 12.5829 3.39774 12.4437 3.53694C12.3045 3.67615 12.2263 3.86495 12.2263 4.06181V7.0309C12.2263 7.22776 12.3045 7.41656 12.4437 7.55577C12.5829 7.69497 12.7717 7.77317 12.9686 7.77317H15.9377C16.1345 7.77317 16.3233 7.69497 16.4625 7.55577C16.6017 7.41656 16.6799 7.22776 16.6799 7.0309V4.06181C16.6799 3.86495 16.6017 3.67615 16.4625 3.53694C16.3233 3.39774 16.1345 3.31954 15.9377 3.31954H12.9686ZM7.03038 18.165H4.06129C3.4707 18.165 2.9043 17.9304 2.48669 17.5128C2.06908 17.0952 1.83447 16.5288 1.83447 15.9382V12.9691C1.83447 12.3785 2.06908 11.8121 2.48669 11.3945C2.9043 10.9769 3.4707 10.7423 4.06129 10.7423H7.03038C7.62097 10.7423 8.18737 10.9769 8.60498 11.3945C9.02259 11.8121 9.2572 12.3785 9.2572 12.9691V15.9382C9.2572 16.5288 9.02259 17.0952 8.60498 17.5128C8.18737 17.9304 7.62097 18.165 7.03038 18.165ZM4.06129 12.2268C3.86443 12.2268 3.67563 12.305 3.53642 12.4442C3.39722 12.5834 3.31902 12.7722 3.31902 12.9691V15.9382C3.31902 16.135 3.39722 16.3238 3.53642 16.463C3.67563 16.6022 3.86443 16.6804 4.06129 16.6804H7.03038C7.22724 16.6804 7.41604 16.6022 7.55525 16.463C7.69445 16.3238 7.77265 16.135 7.77265 15.9382V12.9691C7.77265 12.7722 7.69445 12.5834 7.55525 12.4442C7.41604 12.305 7.22724 12.2268 7.03038 12.2268H4.06129ZM15.9377 18.165H12.9686C12.378 18.165 11.8116 17.9304 11.394 17.5128C10.9764 17.0952 10.7417 16.5288 10.7417 15.9382V12.9691C10.7417 12.3785 10.9764 11.8121 11.394 11.3945C11.8116 10.9769 12.378 10.7423 12.9686 10.7423H15.9377C16.5282 10.7423 17.0946 10.9769 17.5123 11.3945C17.9299 11.8121 18.1645 12.3785 18.1645 12.9691V15.9382C18.1645 16.5288 17.9299 17.0952 17.5123 17.5128C17.0946 17.9304 16.5282 18.165 15.9377 18.165ZM12.9686 12.2268C12.7717 12.2268 12.5829 12.305 12.4437 12.4442C12.3045 12.5834 12.2263 12.7722 12.2263 12.9691V15.9382C12.2263 16.135 12.3045 16.3238 12.4437 16.463C12.5829 16.6022 12.7717 16.6804 12.9686 16.6804H15.9377C16.1345 16.6804 16.3233 16.6022 16.4625 16.463C16.6017 16.3238 16.6799 16.135 16.6799 15.9382V12.9691C16.6799 12.7722 16.6017 12.5834 16.4625 12.4442C16.3233 12.305 16.1345 12.2268 15.9377 12.2268H12.9686Z" fill="#525356"/>
</svg>
