<svg width="20" height="23" viewBox="0 0 20 23" fill="none" xmlns="http://www.w3.org/2000/svg">
<path d="M17.8449 3.03857H14.7316V2.59409C14.7316 1.55153 13.8835 0.703369 12.8409 0.703369H7.16012C6.11756 0.703369 5.2694 1.55153 5.2694 2.59409V3.03857H2.15612C1.76395 3.03901 1.38796 3.19498 1.11063 3.47227C0.833297 3.74956 0.677266 4.12552 0.676758 4.51769V5.21897C0.676758 5.98241 1.25828 6.61241 2.00132 6.69017L3.5246 20.0572C3.6698 21.3338 4.7486 22.2964 6.03356 22.2964H13.9672C15.2522 22.2964 16.331 21.3338 16.4762 20.0572L17.9995 6.69017C18.3628 6.65151 18.6991 6.4799 18.9436 6.20832C19.1881 5.93675 19.3236 5.58439 19.324 5.21897V4.51769C19.3235 4.12552 19.1675 3.74956 18.8902 3.47227C18.6128 3.19498 18.2371 3.03901 17.8449 3.03857ZM6.22964 2.59409C6.22989 2.34732 6.32803 2.11074 6.50252 1.93625C6.67701 1.76176 6.91359 1.66362 7.16036 1.66337H12.8412C13.0879 1.66362 13.3245 1.76176 13.499 1.93625C13.6735 2.11074 13.7716 2.34732 13.7719 2.59409V3.03857H6.22964V2.59409ZM15.5227 19.9485C15.4794 20.3305 15.2969 20.6832 15.0101 20.9392C14.7232 21.1952 14.3522 21.3366 13.9677 21.3364H6.03404C5.64958 21.3366 5.27851 21.1952 4.99169 20.9392C4.70486 20.6832 4.52238 20.3305 4.47908 19.9485L2.96924 6.69833H17.0328L15.5227 19.9485ZM18.3645 5.21897C18.3643 5.35665 18.3095 5.48864 18.2122 5.586C18.1148 5.68336 17.9828 5.73814 17.8452 5.73833H2.15612C2.01843 5.73814 1.88644 5.68336 1.78909 5.586C1.69173 5.48864 1.63695 5.35665 1.63676 5.21897V4.51769C1.63676 4.23161 1.8698 3.99857 2.15612 3.99857H17.8447C18.131 3.99857 18.364 4.23161 18.364 4.51769V5.21897H18.3645Z" fill="#C6C8CA"/>
<path d="M10.0016 18.7385C10.1289 18.7385 10.251 18.6879 10.341 18.5979C10.431 18.5079 10.4816 18.3858 10.4816 18.2585V9.77639C10.4816 9.64908 10.431 9.52699 10.341 9.43698C10.251 9.34696 10.1289 9.29639 10.0016 9.29639C9.87426 9.29639 9.75217 9.34696 9.66215 9.43698C9.57213 9.52699 9.52156 9.64908 9.52156 9.77639V18.2585C9.52156 18.3858 9.57213 18.5079 9.66215 18.5979C9.75217 18.6879 9.87426 18.7385 10.0016 18.7385ZM12.871 18.7161C12.9337 18.7223 12.9971 18.716 13.0574 18.6977C13.1177 18.6794 13.1738 18.6493 13.2224 18.6093C13.2711 18.5693 13.3114 18.52 13.3411 18.4644C13.3707 18.4088 13.3891 18.3478 13.3952 18.2851L14.2174 9.84287C14.2298 9.71617 14.1913 9.58974 14.1105 9.4914C14.0296 9.39305 13.9131 9.33085 13.7864 9.31847C13.7235 9.31191 13.6601 9.3179 13.5996 9.33608C13.5391 9.35426 13.4828 9.38427 13.4341 9.42437C13.3853 9.46447 13.3449 9.51386 13.3154 9.56968C13.2859 9.62549 13.2677 9.68662 13.262 9.74951L12.4397 18.1917C12.4273 18.3184 12.4658 18.4449 12.5466 18.5432C12.6275 18.6416 12.7443 18.7038 12.871 18.7161ZM7.08508 18.7185C7.15209 18.7186 7.21837 18.7046 7.27965 18.6775C7.34094 18.6504 7.39586 18.6107 7.4409 18.5611C7.48593 18.5115 7.52008 18.453 7.54113 18.3894C7.56219 18.3258 7.56969 18.2584 7.56316 18.1917L6.74092 9.74951C6.73516 9.68663 6.71697 9.62552 6.68742 9.56972C6.65787 9.51392 6.61753 9.46454 6.56876 9.42445C6.51998 9.38436 6.46373 9.35434 6.40326 9.33615C6.3428 9.31796 6.27932 9.31195 6.21652 9.31847C6.08982 9.33085 5.97323 9.39305 5.89239 9.4914C5.81156 9.58974 5.7731 9.71617 5.78548 9.84287L6.60772 18.2851C6.61928 18.4037 6.67452 18.5137 6.7627 18.5938C6.85088 18.6739 6.96594 18.7184 7.08508 18.7185Z" fill="#C6C8CA"/>
</svg>
