<svg width="20" height="20" viewBox="0 0 20 20" fill="none" xmlns="http://www.w3.org/2000/svg">
<path d="M17.5001 5.60861C17.4834 5.60861 17.4584 5.60861 17.4334 5.60861C13.0251 5.16694 8.62505 5.00028 4.26672 5.44194L2.56672 5.60861C2.21672 5.64194 1.90839 5.39194 1.87505 5.04194C1.84172 4.69194 2.09172 4.39194 2.43339 4.35861L4.13338 4.19194C8.56672 3.74194 13.0584 3.91694 17.5584 4.35861C17.9001 4.39194 18.1501 4.70028 18.1167 5.04194C18.0917 5.36694 17.8167 5.60861 17.5001 5.60861Z" fill="#646569"/>
<path d="M7.08167 4.76663C7.04834 4.76663 7.01501 4.76663 6.97334 4.75829C6.64001 4.69996 6.40667 4.37496 6.46501 4.04163L6.64834 2.94996C6.78167 2.14996 6.96501 1.04163 8.90667 1.04163H11.09C13.04 1.04163 13.2233 2.19163 13.3483 2.95829L13.5317 4.04163C13.59 4.38329 13.3567 4.70829 13.0233 4.75829C12.6817 4.81663 12.3567 4.58329 12.3067 4.24996L12.1233 3.16663C12.0067 2.44163 11.9817 2.29996 11.0983 2.29996H8.91501C8.03167 2.29996 8.01501 2.41663 7.89001 3.15829L7.69834 4.24163C7.64834 4.54996 7.38167 4.76663 7.08167 4.76663Z" fill="#646569"/>
<path d="M12.675 18.9584H7.325C4.41666 18.9584 4.3 17.3501 4.20833 16.0501L3.66666 7.6584C3.64166 7.31673 3.90833 7.01673 4.25 6.99173C4.6 6.97506 4.89166 7.2334 4.91666 7.57506L5.45833 15.9667C5.55 17.2334 5.58333 17.7084 7.325 17.7084H12.675C14.425 17.7084 14.4583 17.2334 14.5417 15.9667L15.0833 7.57506C15.1083 7.2334 15.4083 6.97506 15.75 6.99173C16.0917 7.01673 16.3583 7.3084 16.3333 7.6584L15.7917 16.0501C15.7 17.3501 15.5833 18.9584 12.675 18.9584Z" fill="#646569"/>
<path d="M11.3824 14.3752H8.60742C8.26576 14.3752 7.98242 14.0918 7.98242 13.7502C7.98242 13.4085 8.26576 13.1252 8.60742 13.1252H11.3824C11.7241 13.1252 12.0074 13.4085 12.0074 13.7502C12.0074 14.0918 11.7241 14.3752 11.3824 14.3752Z" fill="#646569"/>
<path d="M12.0827 11.0416H7.91602C7.57435 11.0416 7.29102 10.7583 7.29102 10.4166C7.29102 10.075 7.57435 9.79163 7.91602 9.79163H12.0827C12.4243 9.79163 12.7077 10.075 12.7077 10.4166C12.7077 10.7583 12.4243 11.0416 12.0827 11.0416Z" fill="#646569"/>
</svg>
