<svg width="20" height="20" viewBox="0 0 20 20" fill="none" xmlns="http://www.w3.org/2000/svg">
<path d="M16.5378 2.94859H13.9434V2.57819C13.9434 1.70939 13.2366 1.00259 12.3678 1.00259H7.63376C6.76496 1.00259 6.05816 1.70939 6.05816 2.57819V2.94859H3.46376C3.13695 2.94896 2.82362 3.07894 2.59252 3.31001C2.36141 3.54108 2.23138 3.85438 2.23096 4.18119V4.76559C2.23096 5.40179 2.71556 5.92679 3.33476 5.99159L4.60416 17.1308C4.72516 18.1946 5.62416 18.9968 6.69496 18.9968H13.3064C14.3772 18.9968 15.2762 18.1946 15.3972 17.1308L16.6666 5.99159C16.9694 5.95938 17.2496 5.81637 17.4533 5.59006C17.6571 5.36375 17.77 5.07011 17.7704 4.76559V4.18119C17.7699 3.85438 17.6399 3.54108 17.4088 3.31001C17.1777 3.07894 16.8646 2.94896 16.5378 2.94859ZM6.85836 2.57819C6.85857 2.37256 6.94035 2.1754 7.08576 2.03C7.23117 1.88459 7.42832 1.80281 7.63396 1.80259H12.368C12.5736 1.80281 12.7707 1.88459 12.9162 2.03C13.0616 2.1754 13.1433 2.37256 13.1436 2.57819V2.94859H6.85836V2.57819ZM14.6026 17.0402C14.5665 17.3585 14.4144 17.6524 14.1754 17.8658C13.9364 18.0791 13.6271 18.197 13.3068 18.1968H6.69536C6.37497 18.197 6.06575 18.0791 5.82673 17.8658C5.58771 17.6524 5.43564 17.3585 5.39956 17.0402L4.14136 5.99839H15.861L14.6026 17.0402ZM16.9708 4.76559C16.9706 4.88033 16.9249 4.99032 16.8438 5.07145C16.7627 5.15259 16.6527 5.19823 16.538 5.19839H3.46376C3.34902 5.19823 3.23903 5.15259 3.1579 5.07145C3.07677 4.99032 3.03112 4.88033 3.03096 4.76559V4.18119C3.03096 3.94279 3.22516 3.74859 3.46376 3.74859H16.5376C16.7762 3.74859 16.9704 3.94279 16.9704 4.18119V4.76559H16.9708Z" fill="#FF306E"/>
<path d="M10.0011 16.0318C10.1072 16.0318 10.209 15.9896 10.284 15.9146C10.359 15.8396 10.4011 15.7379 10.4011 15.6318V8.56339C10.4011 8.4573 10.359 8.35556 10.284 8.28055C10.209 8.20553 10.1072 8.16339 10.0011 8.16339C9.89505 8.16339 9.79331 8.20553 9.71829 8.28055C9.64328 8.35556 9.60114 8.4573 9.60114 8.56339V15.6318C9.60114 15.7379 9.64328 15.8396 9.71829 15.9146C9.79331 15.9896 9.89505 16.0318 10.0011 16.0318ZM12.3923 16.0132C12.4446 16.0183 12.4974 16.0131 12.5476 15.9978C12.5979 15.9825 12.6446 15.9575 12.6852 15.9241C12.7258 15.8908 12.7594 15.8498 12.7841 15.8034C12.8088 15.757 12.8241 15.7063 12.8291 15.654L13.5143 8.61879C13.5247 8.51321 13.4926 8.40785 13.4252 8.3259C13.3579 8.24395 13.2607 8.19211 13.1551 8.18179C13.1028 8.17633 13.0499 8.18132 12.9995 8.19647C12.9491 8.21162 12.9022 8.23663 12.8616 8.27005C12.8209 8.30346 12.7873 8.34462 12.7627 8.39113C12.738 8.43764 12.7229 8.48858 12.7181 8.54099L12.0329 15.5762C12.0226 15.6818 12.0547 15.7871 12.122 15.8691C12.1894 15.951 12.2868 16.0029 12.3923 16.0132ZM7.57074 16.0152C7.62658 16.0152 7.68181 16.0036 7.73288 15.981C7.78395 15.9584 7.82972 15.9254 7.86725 15.884C7.90478 15.8427 7.93323 15.7939 7.95078 15.7409C7.96833 15.6879 7.97458 15.6318 7.96914 15.5762L7.28394 8.54099C7.27914 8.48859 7.26398 8.43767 7.23935 8.39117C7.21473 8.34467 7.18112 8.30352 7.14047 8.27011C7.09982 8.2367 7.05294 8.21169 7.00256 8.19653C6.95217 8.18137 6.89927 8.17636 6.84694 8.18179C6.74135 8.19211 6.6442 8.24395 6.57683 8.3259C6.50947 8.40785 6.47742 8.51321 6.48774 8.61879L7.17294 15.654C7.18257 15.7528 7.2286 15.8445 7.30209 15.9113C7.37557 15.978 7.47146 16.0151 7.57074 16.0152Z" fill="#FF306E"/>
</svg>
