<svg width="16" height="16" viewBox="0 0 16 16" fill="none" xmlns="http://www.w3.org/2000/svg">
<path d="M7.98902 10.9993C7.75585 10.9998 7.52987 10.9184 7.35033 10.7693L2.36052 6.76934C2.15672 6.5996 2.02855 6.35569 2.00422 6.09126C1.97989 5.82684 2.06139 5.56356 2.23078 5.35934C2.40017 5.15512 2.64359 5.0267 2.90748 5.00232C3.17136 4.97794 3.43411 5.0596 3.63791 5.22934L7.98902 8.70934L12.3401 5.38934C12.4422 5.30627 12.5597 5.24424 12.6858 5.20681C12.8118 5.16938 12.9441 5.15728 13.0748 5.17122C13.2056 5.18516 13.3323 5.22486 13.4477 5.28803C13.5631 5.35121 13.6649 5.43661 13.7473 5.53934C13.8387 5.64216 13.9079 5.76279 13.9506 5.89366C13.9933 6.02453 14.0086 6.16283 13.9954 6.2999C13.9823 6.43696 13.9411 6.56983 13.8744 6.69019C13.8076 6.81055 13.7168 6.91579 13.6075 6.99934L8.61774 10.8293C8.43303 10.9549 8.21167 11.0147 7.98902 10.9993Z" fill="#85878B"/>
</svg>
