<svg width="20" height="20" viewBox="0 0 20 20" fill="none" xmlns="http://www.w3.org/2000/svg">
<path d="M13.6 4.00005C12.9635 4.00005 12.353 4.2529 11.9029 4.70299C11.4529 5.15308 11.2 5.76353 11.2 6.40005C11.2 7.03657 11.4529 7.64701 11.9029 8.0971C12.353 8.54719 12.9635 8.80005 13.6 8.80005C14.2365 8.80005 14.847 8.54719 15.2971 8.0971C15.7471 7.64701 16 7.03657 16 6.40005C16 5.76353 15.7471 5.15308 15.2971 4.70299C14.847 4.2529 14.2365 4.00005 13.6 4.00005ZM13.6 11.2C12.9635 11.2 12.353 11.4529 11.9029 11.903C11.4529 12.3531 11.2 12.9635 11.2 13.6C11.2 14.2366 11.4529 14.847 11.9029 15.2971C12.353 15.7472 12.9635 16 13.6 16C14.2365 16 14.847 15.7472 15.2971 15.2971C15.7471 14.847 16 14.2366 16 13.6C16 12.9635 15.7471 12.3531 15.2971 11.903C14.847 11.4529 14.2365 11.2 13.6 11.2ZM6.4 11.2C5.76348 11.2 5.15303 11.4529 4.70294 11.903C4.25286 12.3531 4 12.9635 4 13.6C4 14.2366 4.25286 14.847 4.70294 15.2971C5.15303 15.7472 5.76348 16 6.4 16C7.03652 16 7.64697 15.7472 8.09706 15.2971C8.54714 14.847 8.8 14.2366 8.8 13.6C8.8 12.9635 8.54714 12.3531 8.09706 11.903C7.64697 11.4529 7.03652 11.2 6.4 11.2ZM6.4 4.00005C5.76348 4.00005 5.15303 4.2529 4.70294 4.70299C4.25286 5.15308 4 5.76353 4 6.40005C4 7.03657 4.25286 7.64701 4.70294 8.0971C5.15303 8.54719 5.76348 8.80005 6.4 8.80005C7.03652 8.80005 7.64697 8.54719 8.09706 8.0971C8.54714 7.64701 8.8 7.03657 8.8 6.40005C8.8 5.76353 8.54714 5.15308 8.09706 4.70299C7.64697 4.2529 7.03652 4.00005 6.4 4.00005Z" fill="#C6C8CA"/>
</svg>
