<svg width="14" height="15" viewBox="0 0 14 15" fill="none" xmlns="http://www.w3.org/2000/svg">
<path d="M7.00031 0.75C5.14449 0.752007 3.36525 1.49012 2.05299 2.80238C0.740728 4.11464 0.00261735 5.89388 0.000610139 7.7497C-0.0728867 13.3337 6.50974 16.7496 11.0251 13.476C11.09 13.4329 11.1456 13.3771 11.1886 13.3121C11.2316 13.2471 11.2611 13.1742 11.2754 13.0976C11.2898 13.021 11.2886 12.9423 11.272 12.8661C11.2554 12.79 11.2237 12.7179 11.1788 12.6542C11.1339 12.5906 11.0767 12.5365 11.0105 12.4953C10.9444 12.4541 10.8707 12.4265 10.7937 12.4143C10.7167 12.402 10.6381 12.4054 10.5624 12.424C10.4868 12.4427 10.4156 12.4763 10.3532 12.5229C6.59199 15.2487 1.1089 12.4033 1.16723 7.7497C1.48746 0.0115321 12.5143 0.0132822 12.8334 7.7497V8.91631C12.8334 9.22572 12.7105 9.52245 12.4917 9.74123C12.2729 9.96002 11.9762 10.0829 11.6668 10.0829C11.3574 10.0829 11.0606 9.96002 10.8418 9.74123C10.6231 9.52245 10.5002 9.22572 10.5002 8.91631V7.7497C10.3532 3.12465 3.64687 3.12523 3.50046 7.7497C3.50725 8.459 3.7288 9.14959 4.1359 9.73047C4.54301 10.3113 5.11657 10.7552 5.78099 11.0036C6.44541 11.252 7.1695 11.2933 7.85783 11.1219C8.54615 10.9506 9.16641 10.5747 9.63686 10.0438C9.8899 10.4904 10.2831 10.8411 10.7557 11.0416C11.2282 11.242 11.7537 11.2811 12.2507 11.1527C12.7476 11.0242 13.1884 10.7355 13.5046 10.3312C13.8209 9.9269 13.995 9.42959 14 8.91631V7.7497C13.998 5.89388 13.2599 4.11464 11.9476 2.80238C10.6354 1.49012 8.85612 0.752007 7.00031 0.75ZM7.00031 10.0829C6.38149 10.0829 5.78803 9.83711 5.35046 9.39954C4.9129 8.96198 4.66707 8.36851 4.66707 7.7497C4.66707 7.13088 4.9129 6.53742 5.35046 6.09985C5.78803 5.66229 6.38149 5.41646 7.00031 5.41646C7.61912 5.41646 8.21258 5.66229 8.65015 6.09985C9.08772 6.53742 9.33354 7.13088 9.33354 7.7497C9.33354 8.36851 9.08772 8.96198 8.65015 9.39954C8.21258 9.83711 7.61912 10.0829 7.00031 10.0829Z" fill="#96989B"/>
</svg>
