<svg width="16" height="16" viewBox="0 0 16 16" fill="none" xmlns="http://www.w3.org/2000/svg">
<path d="M8.01098 5.00066C8.24415 5.0002 8.47013 5.08157 8.64967 5.23066L13.6395 9.23065C13.8433 9.40039 13.9714 9.64431 13.9958 9.90873C14.0201 10.1732 13.9386 10.4364 13.7692 10.6407C13.5998 10.8449 13.3564 10.9733 13.0925 10.9977C12.8286 11.0221 12.5659 10.9404 12.3621 10.7707L8.01098 7.29066L3.65986 10.6107C3.55778 10.6937 3.44033 10.7558 3.31424 10.7932C3.18816 10.8306 3.05594 10.8427 2.92518 10.8288C2.79442 10.8148 2.6677 10.7751 2.55229 10.712C2.43689 10.6488 2.33509 10.5634 2.25273 10.4607C2.16134 10.3578 2.09212 10.2372 2.04942 10.1063C2.00671 9.97546 1.99144 9.83716 2.00456 9.7001C2.01767 9.56303 2.0589 9.43016 2.12564 9.3098C2.19239 9.18945 2.28322 9.0842 2.39245 9.00066L7.38226 5.17066C7.56697 5.04514 7.78833 4.98528 8.01098 5.00066Z" fill="white"/>
</svg>
