<svg width="20" height="20" viewBox="0 0 20 20" fill="none" xmlns="http://www.w3.org/2000/svg">
<g clip-path="url(#clip0_425_9467)">
<path d="M9.99177 0.856603C10.0856 0.856527 10.1785 0.874952 10.2652 0.910822C10.3519 0.946692 10.4307 0.999303 10.497 1.06565C10.5634 1.13199 10.616 1.21076 10.6518 1.29745C10.6877 1.38415 10.7061 1.47707 10.7061 1.57089L10.7061 12.2532C10.7061 12.4426 10.6308 12.6243 10.4968 12.7583C10.3629 12.8922 10.1812 12.9675 9.99177 12.9675C9.80233 12.9675 9.62065 12.8922 9.48669 12.7583C9.35274 12.6243 9.27748 12.4426 9.27748 12.2532L9.27748 1.57089C9.27748 1.38145 9.35274 1.19977 9.48669 1.06581C9.62065 0.931858 9.80233 0.856603 9.99177 0.856603Z" fill="#646569"/>
<path d="M9.99167 0.535461C10.2317 0.535079 10.4695 0.582135 10.6913 0.673923C10.9131 0.76571 11.1146 0.900422 11.2842 1.07032L15.142 4.92803C15.2759 5.06193 15.3511 5.24353 15.3511 5.43289C15.3511 5.62225 15.2759 5.80385 15.142 5.93775C15.0081 6.07164 14.8265 6.14687 14.6371 6.14687C14.4477 6.14687 14.2661 6.07164 14.1322 5.93775L10.2745 2.08003C10.2374 2.04289 10.1933 2.01342 10.1448 1.99331C10.0962 1.97321 10.0442 1.96286 9.99167 1.96286C9.93914 1.96286 9.88712 1.97321 9.83859 1.99331C9.79005 2.01342 9.74596 2.04289 9.70881 2.08003L5.8511 5.93775C5.71642 6.0679 5.53601 6.13995 5.34873 6.13837C5.16144 6.1368 4.98227 6.06173 4.8498 5.92933C4.71732 5.79693 4.64215 5.6178 4.64047 5.43052C4.63879 5.24324 4.71074 5.06279 4.84081 4.92803L8.6991 1.07032C8.86874 0.900473 9.07024 0.765794 9.29205 0.67401C9.51387 0.582226 9.75162 0.535142 9.99167 0.535461Z" fill="#646569"/>
<path d="M17.9636 19.4646H2.03678C1.53472 19.464 1.0534 19.2643 0.698391 18.9092C0.343381 18.5542 0.143671 18.0729 0.143066 17.5709V12.5777C0.143066 12.3883 0.218321 12.2066 0.352276 12.0726C0.48623 11.9387 0.667912 11.8634 0.857352 11.8634C1.04679 11.8634 1.22847 11.9387 1.36243 12.0726C1.49638 12.2066 1.57164 12.3883 1.57164 12.5777V17.5709C1.57179 17.6942 1.62084 17.8124 1.70804 17.8996C1.79524 17.9868 1.91346 18.0358 2.03678 18.036H17.9636C18.087 18.0358 18.2052 17.9868 18.2924 17.8996C18.3796 17.8124 18.4286 17.6942 18.4288 17.5709V12.5777C18.4288 12.3883 18.504 12.2066 18.638 12.0726C18.7719 11.9387 18.9536 11.8634 19.1431 11.8634C19.3325 11.8634 19.5142 11.9387 19.6481 12.0726C19.7821 12.2066 19.8574 12.3883 19.8574 12.5777V17.5709C19.8567 18.0729 19.657 18.5542 19.302 18.9092C18.947 19.2643 18.4657 19.464 17.9636 19.4646Z" fill="#646569"/>
</g>
<defs>
<clipPath id="clip0_425_9467">
<rect width="20" height="20" fill="white"/>
</clipPath>
</defs>
</svg>
