<svg width="16" height="13" viewBox="0 0 16 13" fill="none" xmlns="http://www.w3.org/2000/svg">
<path d="M6.66661 0.961538L3.55552 0.5H1.77776C1.30627 0.5 0.85409 0.694505 0.520695 1.04073C0.187299 1.38695 0 1.85652 0 2.34615L0 10.6538C0 11.1435 0.187299 11.6131 0.520695 11.9593C0.85409 12.3055 1.30627 12.5 1.77776 12.5H3.55552L6.66661 12.0385V0.961538Z" fill="#EEEEEE"/>
<path d="M14.2232 0.5H3.55664L6.25928 1.7L3.55664 2.9L6.25928 4.1L3.55664 5.3L6.25928 6.5L3.55664 7.7L6.25928 8.9L3.55664 10.1L6.25928 11.3L3.55664 12.5H14.2232C14.6947 12.5 15.1469 12.3055 15.4803 11.9593C15.8137 11.6131 16.001 11.1435 16.001 10.6538V2.34615C16.001 1.85652 15.8137 1.38695 15.4803 1.04073C15.1469 0.694505 14.6947 0.5 14.2232 0.5Z" fill="#CE1126"/>
</svg>
