<svg width="20" height="20" viewBox="0 0 20 20" fill="none" xmlns="http://www.w3.org/2000/svg">
<g clip-path="url(#clip0_425_9850)">
<mask id="mask0_425_9850" style="mask-type:luminance" maskUnits="userSpaceOnUse" x="0" y="0" width="20" height="20">
<path d="M20 0H0V20H20V0Z" fill="white"/>
</mask>
<g mask="url(#mask0_425_9850)">
<path d="M10.0001 15.791C7.81675 15.791 6.04175 14.016 6.04175 11.8327C6.04175 9.64934 7.81675 7.87436 10.0001 7.87436C12.1834 7.87436 13.9584 9.64934 13.9584 11.8327C13.9584 14.016 12.1834 15.791 10.0001 15.791ZM10.0001 9.12434C8.50841 9.12434 7.29175 10.341 7.29175 11.8327C7.29175 13.3243 8.50841 14.541 10.0001 14.541C11.4917 14.541 12.7084 13.3243 12.7084 11.8327C12.7084 10.341 11.4917 9.12434 10.0001 9.12434Z" fill="#525356"/>
<path d="M9.16657 13.2924C8.95823 13.2924 8.7499 13.1841 8.63324 12.9924C8.45824 12.6924 8.5499 12.3091 8.8499 12.1341L9.48323 11.7508C9.5499 11.7174 9.58323 11.6424 9.58323 11.5758V10.8008C9.58323 10.4591 9.86657 10.1758 10.2082 10.1758C10.5499 10.1758 10.8332 10.4508 10.8332 10.7924V11.5674C10.8332 12.0758 10.5582 12.5591 10.1249 12.8174L9.49157 13.2008C9.39157 13.2674 9.2749 13.2924 9.16657 13.2924Z" fill="#525356"/>
<path d="M13.3332 18.9582H6.66653C2.81653 18.9582 2.09986 17.1665 1.91653 15.4248L1.29153 8.74984C1.19986 7.87481 1.17486 6.58315 2.04153 5.61648C2.79153 4.78315 4.0332 4.38315 5.8332 4.38315H14.1665C15.9749 4.38315 17.2165 4.79148 17.9582 5.61648C18.8249 6.58315 18.7999 7.87481 18.7082 8.75817L18.0832 15.4165C17.8999 17.1665 17.1832 18.9582 13.3332 18.9582ZM5.8332 5.62482C4.42486 5.62482 3.4582 5.89981 2.96653 6.44982C2.5582 6.89982 2.42486 7.59148 2.5332 8.62484L3.1582 15.2998C3.29986 16.6165 3.6582 17.7082 6.66653 17.7082H13.3332C16.3332 17.7082 16.6999 16.6165 16.8415 15.2915L17.4665 8.63317C17.5749 7.59148 17.4415 6.89982 17.0332 6.44982C16.5415 5.89981 15.5749 5.62482 14.1665 5.62482H5.8332Z" fill="#525356"/>
<path d="M13.3334 5.62502C12.9917 5.62502 12.7084 5.34169 12.7084 5.00002V4.33335C12.7084 2.85002 12.7084 2.29169 10.6667 2.29169H9.33341C7.29175 2.29169 7.29175 2.85002 7.29175 4.33335V5.00002C7.29175 5.34169 7.00841 5.62502 6.66675 5.62502C6.32508 5.62502 6.04175 5.34169 6.04175 5.00002V4.33335C6.04175 2.86669 6.04175 1.04169 9.33341 1.04169H10.6667C13.9584 1.04169 13.9584 2.86669 13.9584 4.33335V5.00002C13.9584 5.34169 13.6751 5.62502 13.3334 5.62502Z" fill="#525356"/>
<path d="M13.3416 11.9915C13.0582 11.9915 12.8082 11.7999 12.7332 11.5165C12.6499 11.1832 12.8499 10.8415 13.1832 10.7582C14.8082 10.3499 16.3166 9.64154 17.6666 8.65821C17.9416 8.45821 18.3332 8.51654 18.5416 8.79988C18.7416 9.07488 18.6832 9.46654 18.3999 9.67488C16.9166 10.7499 15.2666 11.5249 13.4832 11.9749C13.4416 11.9832 13.3916 11.9915 13.3416 11.9915Z" fill="#525356"/>
<path d="M6.66654 12.016C6.61654 12.016 6.56654 12.0077 6.51654 11.9994C4.84154 11.591 3.26654 10.8827 1.82487 9.89936C1.54154 9.70769 1.46654 9.31603 1.6582 9.03269C1.84987 8.74936 2.24154 8.67436 2.52487 8.86603C3.84154 9.76603 5.27487 10.4077 6.8082 10.7827C7.14154 10.866 7.34987 11.1994 7.26654 11.541C7.2082 11.8244 6.94987 12.016 6.66654 12.016Z" fill="#525356"/>
</g>
</g>
<defs>
<clipPath id="clip0_425_9850">
<rect width="20" height="20" fill="white"/>
</clipPath>
</defs>
</svg>
