<svg width="20" height="20" viewBox="0 0 20 20" fill="none" xmlns="http://www.w3.org/2000/svg">
<g clip-path="url(#clip0_425_9464)">
<path d="M9.99993 12.6463C9.90611 12.6464 9.81319 12.6279 9.7265 12.5921C9.6398 12.5562 9.56103 12.5036 9.49469 12.4373C9.42834 12.3709 9.37573 12.2921 9.33986 12.2054C9.30399 12.1187 9.28557 12.0258 9.28564 11.932V1.24972C9.28564 1.06028 9.3609 0.878603 9.49485 0.744648C9.62881 0.610693 9.81049 0.535439 9.99993 0.535439C10.1894 0.535439 10.3711 0.610693 10.505 0.744648C10.639 0.878603 10.7142 1.06028 10.7142 1.24972V11.932C10.7142 12.1215 10.639 12.3031 10.505 12.4371C10.3711 12.571 10.1894 12.6463 9.99993 12.6463Z" fill="#646569"/>
<path d="M10 12.9675C9.75997 12.9679 9.5222 12.9208 9.30038 12.8291C9.07856 12.7373 8.87706 12.6026 8.70746 12.4327L4.84974 8.57495C4.71585 8.44105 4.64062 8.25945 4.64063 8.07009C4.64063 7.88074 4.71585 7.69913 4.84974 7.56524C4.98364 7.43134 5.16524 7.35612 5.3546 7.35612C5.54396 7.35612 5.72556 7.43134 5.85946 7.56524L9.71717 11.4229C9.75432 11.4601 9.79841 11.4896 9.84695 11.5097C9.89548 11.5298 9.9475 11.5401 10 11.5401C10.0526 11.5401 10.1046 11.5298 10.1531 11.5097C10.2016 11.4896 10.2457 11.4601 10.2829 11.4229L14.1406 7.56524C14.2753 7.43508 14.4557 7.36304 14.643 7.36461C14.8303 7.36619 15.0094 7.44126 15.1419 7.57365C15.2744 7.70605 15.3495 7.88518 15.3512 8.07246C15.3529 8.25975 15.281 8.4402 15.1509 8.57495L11.2926 12.4327C11.123 12.6025 10.9215 12.7372 10.6996 12.829C10.4778 12.9208 10.2401 12.9678 10 12.9675Z" fill="#646569"/>
<path d="M17.9636 19.4646H2.03678C1.53472 19.464 1.0534 19.2643 0.698391 18.9092C0.343381 18.5542 0.143671 18.0729 0.143066 17.5709V12.5777C0.143066 12.3883 0.218321 12.2066 0.352276 12.0726C0.48623 11.9387 0.667912 11.8634 0.857352 11.8634C1.04679 11.8634 1.22847 11.9387 1.36243 12.0726C1.49638 12.2066 1.57164 12.3883 1.57164 12.5777V17.5709C1.57179 17.6942 1.62084 17.8124 1.70804 17.8996C1.79524 17.9868 1.91346 18.0358 2.03678 18.036H17.9636C18.087 18.0358 18.2052 17.9868 18.2924 17.8996C18.3796 17.8124 18.4286 17.6942 18.4288 17.5709V12.5777C18.4288 12.3883 18.504 12.2066 18.638 12.0726C18.7719 11.9387 18.9536 11.8634 19.1431 11.8634C19.3325 11.8634 19.5142 11.9387 19.6481 12.0726C19.7821 12.2066 19.8574 12.3883 19.8574 12.5777V17.5709C19.8567 18.0729 19.657 18.5542 19.302 18.9092C18.947 19.2643 18.4657 19.464 17.9636 19.4646Z" fill="#646569"/>
</g>
<defs>
<clipPath id="clip0_425_9464">
<rect width="20" height="20" fill="white"/>
</clipPath>
</defs>
</svg>
