<svg width="15" height="16" viewBox="0 0 15 16" fill="none" xmlns="http://www.w3.org/2000/svg">
<path d="M7.5 11.125V7.375" stroke="#85878B" stroke-width="0.9375" stroke-linecap="round"/>
<path d="M7.5 4.875C7.84518 4.875 8.125 5.15482 8.125 5.5C8.125 5.84518 7.84518 6.125 7.5 6.125C7.15482 6.125 6.875 5.84518 6.875 5.5C6.875 5.15482 7.15482 4.875 7.5 4.875Z" fill="#85878B"/>
<path d="M4.375 2.58614C5.29429 2.05436 6.36162 1.75 7.5 1.75C10.9517 1.75 13.75 4.54822 13.75 8C13.75 11.4517 10.9517 14.25 7.5 14.25C4.04822 14.25 1.25 11.4517 1.25 8C1.25 6.86162 1.55436 5.79429 2.08614 4.875" stroke="#85878B" stroke-width="0.9375" stroke-linecap="round"/>
</svg>
