<svg width="20" height="20" viewBox="0 0 20 20" fill="none" xmlns="http://www.w3.org/2000/svg">
<path d="M18.4384 19C18.3539 19.0002 18.2705 18.9813 18.1944 18.9447C18.1183 18.908 18.0515 18.8546 17.9989 18.7885L16.9498 17.476C16.8623 17.3659 16.751 17.2771 16.6242 17.2162C16.4975 17.1553 16.3586 17.1239 16.2179 17.1243H6.96503C6.81952 17.1189 6.68174 17.0574 6.58068 16.9525C6.47961 16.8477 6.42314 16.7078 6.42314 16.5621C6.42314 16.4165 6.47961 16.2765 6.58068 16.1717C6.68174 16.0669 6.81952 16.0053 6.96503 16H16.2179C16.8471 16 17.4335 16.282 17.8272 16.774L18.8771 18.0865C18.9431 18.1692 18.9845 18.2689 18.9964 18.374C19.0083 18.4792 18.9904 18.5856 18.9446 18.681C18.8987 18.7764 18.8269 18.857 18.7374 18.9134C18.6479 18.9698 18.5442 18.9998 18.4384 19ZM4.94032 15.4353C4.79116 15.4353 4.6481 15.376 4.54263 15.2705C4.43715 15.165 4.3779 15.0219 4.3779 14.8728V2.34251C4.3779 2.29304 4.35836 2.24557 4.32352 2.21045C4.28869 2.17533 4.24139 2.15541 4.19193 2.15501L1.55905 2.12501C1.4852 2.12457 1.41215 2.10958 1.34408 2.0809C1.27602 2.05222 1.21426 2.01042 1.16235 1.95787C1.05751 1.85175 0.999115 1.70832 1.00001 1.55913C1.00091 1.40995 1.06102 1.26723 1.16713 1.16238C1.27323 1.05752 1.41664 0.999115 1.5658 1.00001H1.57255L4.20467 1.03001C4.55 1.03454 4.87969 1.17472 5.12256 1.42029C5.36543 1.66586 5.50198 1.99711 5.50274 2.34251V14.8728C5.50274 15.0219 5.44348 15.165 5.33801 15.2705C5.23254 15.376 5.08948 15.4353 4.94032 15.4353Z" fill="#525356"/>
<path d="M5.43919 19C4.23222 19 3.25 17.9903 3.25 16.7495C3.25 15.5088 4.23222 14.4991 5.43919 14.4991C6.64616 14.4991 7.62838 15.5088 7.62838 16.7495C7.62838 17.9903 6.64616 19 5.43919 19ZM5.43919 15.6243C4.8357 15.6243 4.34459 16.1292 4.34459 16.7495C4.34459 17.3699 4.8357 17.8748 5.43919 17.8748C6.04268 17.8748 6.53378 17.3699 6.53378 16.7495C6.53378 16.1292 6.04268 15.6243 5.43919 15.6243ZM16.2027 15.2515H8.41868C8.27352 15.2515 8.13432 15.1922 8.03168 15.0867C7.92904 14.9812 7.87138 14.8381 7.87138 14.6889C7.87138 14.5397 7.92904 14.3966 8.03168 14.2911C8.13432 14.1855 8.27352 14.1263 8.41868 14.1263H15.6554V8.87523H7.62838V13.4594C7.62838 13.6086 7.57072 13.7517 7.46808 13.8572C7.36544 13.9627 7.22623 14.022 7.08108 14.022C6.93593 14.022 6.79672 13.9627 6.69408 13.8572C6.59145 13.7517 6.53378 13.6086 6.53378 13.4594V8.31261C6.53378 8.1634 6.59145 8.0203 6.69408 7.91479C6.79672 7.80928 6.93593 7.75 7.08108 7.75H16.2027C16.3479 7.75 16.4871 7.80928 16.5897 7.91479C16.6923 8.0203 16.75 8.1634 16.75 8.31261V14.6889C16.75 14.8381 16.6923 14.9812 16.5897 15.0867C16.4871 15.1922 16.3479 15.2515 16.2027 15.2515Z" fill="#525356"/>
<path d="M15.0625 13.375H12.8125C12.6633 13.375 12.5202 13.3139 12.4148 13.2051C12.3093 13.0963 12.25 12.9488 12.25 12.7949C12.25 12.6411 12.3093 12.4935 12.4148 12.3847C12.5202 12.276 12.6633 12.2148 12.8125 12.2148H15.0625C15.2117 12.2148 15.3548 12.276 15.4602 12.3847C15.5657 12.4935 15.625 12.6411 15.625 12.7949C15.625 12.9488 15.5657 13.0963 15.4602 13.2051C15.3548 13.3139 15.2117 13.375 15.0625 13.375ZM13.5625 9.12109H7.1875C7.03832 9.12109 6.89524 9.05998 6.78975 8.95119C6.68426 8.84241 6.625 8.69486 6.625 8.54102V1.58008C6.625 1.42623 6.68426 1.27869 6.78975 1.1699C6.89524 1.06112 7.03832 1 7.1875 1H13.5625C13.7117 1 13.8548 1.06112 13.9602 1.1699C14.0657 1.27869 14.125 1.42623 14.125 1.58008V8.54102C14.125 8.69486 14.0657 8.84241 13.9602 8.95119C13.8548 9.05998 13.7117 9.12109 13.5625 9.12109ZM7.75 7.96094H13V2.16016H7.75V7.96094Z" fill="#525356"/>
<path d="M11.7679 6.625H10.4821C10.3543 6.625 10.2316 6.56574 10.1412 6.46025C10.0508 6.35476 10 6.21168 10 6.0625C10 5.91332 10.0508 5.77024 10.1412 5.66475C10.2316 5.55926 10.3543 5.5 10.4821 5.5H11.7679C11.8957 5.5 12.0184 5.55926 12.1088 5.66475C12.1992 5.77024 12.25 5.91332 12.25 6.0625C12.25 6.21168 12.1992 6.35476 12.1088 6.46025C12.0184 6.56574 11.8957 6.625 11.7679 6.625Z" fill="#525356"/>
</svg>
