<svg width="20" height="20" viewBox="0 0 20 20" fill="none" xmlns="http://www.w3.org/2000/svg">
<path d="M12.4542 1.04169C11.3151 1.04169 10.3959 1.04169 9.67338 1.13919C8.92338 1.23919 8.29172 1.45585 7.79005 1.95669C7.35338 2.39419 7.13172 2.93169 7.01588 3.56335C6.90338 4.17752 6.88172 4.92835 6.87672 5.83002C6.87583 5.99578 6.94083 6.1551 7.05742 6.27294C7.174 6.39077 7.33262 6.45747 7.49838 6.45835C7.66415 6.45924 7.82347 6.39424 7.9413 6.27765C8.05914 6.16107 8.12583 6.00245 8.12672 5.83669C8.13172 4.92585 8.15505 4.28002 8.24505 3.78919C8.33255 3.31752 8.47172 3.04335 8.67422 2.84085C8.90505 2.61002 9.22922 2.46002 9.84088 2.37752C10.4701 2.29335 11.3042 2.29169 12.5001 2.29169H13.3334C14.5301 2.29169 15.3642 2.29335 15.9934 2.37752C16.6051 2.46002 16.9284 2.61085 17.1601 2.84085C17.3917 3.07085 17.5401 3.39502 17.6226 4.00752C17.7076 4.63585 17.7084 5.47085 17.7084 6.66669V13.3334C17.7084 14.5292 17.7076 15.3642 17.6226 15.9934C17.5401 16.605 17.3901 16.9284 17.1592 17.1592C16.9284 17.39 16.6051 17.54 15.9934 17.6225C15.3642 17.7067 14.5301 17.7084 13.3334 17.7084H12.5001C11.3042 17.7084 10.4701 17.7067 9.84005 17.6225C9.22922 17.54 8.90505 17.3892 8.67422 17.1592C8.47172 16.9567 8.33255 16.6825 8.24505 16.2109C8.15505 15.72 8.13172 15.0742 8.12672 14.1634C8.12628 14.0813 8.10968 14.0001 8.07787 13.9244C8.04605 13.8488 7.99965 13.7801 7.9413 13.7224C7.88296 13.6647 7.81381 13.619 7.73782 13.588C7.66182 13.557 7.58046 13.5413 7.49838 13.5417C7.41631 13.5421 7.33512 13.5587 7.25946 13.5905C7.1838 13.6224 7.11515 13.6688 7.05742 13.7271C6.99969 13.7854 6.95402 13.8546 6.92302 13.9306C6.89201 14.0066 6.87628 14.0879 6.87672 14.17C6.88172 15.0717 6.90338 15.8225 7.01588 16.4367C7.13255 17.0684 7.35338 17.6059 7.79088 18.0434C8.29172 18.545 8.92422 18.76 9.67422 18.8617C10.3959 18.9584 11.3151 18.9584 12.4542 18.9584H13.3792C14.5192 18.9584 15.4376 18.9584 16.1601 18.8609C16.9101 18.7609 17.5417 18.5442 18.0434 18.0434C18.5451 17.5417 18.7601 16.91 18.8617 16.16C18.9584 15.4375 18.9584 14.5184 18.9584 13.3792V6.62085C18.9584 5.48169 18.9584 4.56252 18.8617 3.84002C18.7609 3.09002 18.5451 2.45835 18.0434 1.95669C17.5417 1.45502 16.9101 1.24002 16.1601 1.13919C15.4376 1.04169 14.5184 1.04169 13.3792 1.04169H12.4542Z" fill="#FF6591"/>
<path d="M12.5001 9.375C12.6658 9.375 12.8248 9.44085 12.942 9.55806C13.0592 9.67527 13.1251 9.83424 13.1251 10C13.1251 10.1658 13.0592 10.3247 12.942 10.4419C12.8248 10.5591 12.6658 10.625 12.5001 10.625H3.35589L4.99006 12.025C5.11604 12.1329 5.19401 12.2863 5.20682 12.4517C5.21964 12.617 5.16625 12.7807 5.05839 12.9067C4.95054 13.0326 4.79705 13.1106 4.63171 13.1234C4.46637 13.1362 4.3027 13.0829 4.17672 12.975L1.26006 10.475C1.19145 10.4163 1.13636 10.3435 1.09859 10.2615C1.06082 10.1795 1.04126 10.0903 1.04126 10C1.04126 9.90972 1.06082 9.82051 1.09859 9.73851C1.13636 9.65651 1.19145 9.58367 1.26006 9.525L4.17672 7.025C4.2391 6.97159 4.31139 6.931 4.38945 6.90553C4.46752 6.88006 4.54984 6.87022 4.63171 6.87656C4.71358 6.88291 4.7934 6.90532 4.86661 6.94251C4.93982 6.9797 5.00499 7.03095 5.05839 7.09333C5.1118 7.15571 5.15239 7.22799 5.17786 7.30606C5.20333 7.38413 5.21317 7.46645 5.20682 7.54832C5.20048 7.63019 5.17807 7.71001 5.14088 7.78322C5.10368 7.85643 5.05244 7.92159 4.99006 7.975L3.35672 9.375H12.5001Z" fill="#FF6591"/>
</svg>
