<svg width="20" height="20" viewBox="0 0 20 20" fill="none" xmlns="http://www.w3.org/2000/svg">
<path d="M14.1668 4.16667C14.1668 3.67222 14.3135 3.18887 14.5882 2.77775C14.8629 2.36662 15.2533 2.04619 15.7101 1.85697C16.1669 1.66775 16.6696 1.61825 17.1546 1.71471C17.6395 1.81117 18.085 2.04927 18.4346 2.39891C18.7842 2.74854 19.0223 3.19399 19.1188 3.67895C19.2153 4.1639 19.1657 4.66657 18.9765 5.12338C18.7873 5.5802 18.4669 5.97064 18.0558 6.24535C17.6446 6.52005 17.1613 6.66667 16.6668 6.66667C16.0038 6.66667 15.3679 6.40328 14.8991 5.93444C14.4302 5.4656 14.1668 4.82971 14.1668 4.16667ZM1.66683 5.00001H11.6668C11.8878 5.00001 12.0998 4.91221 12.2561 4.75593C12.4124 4.59965 12.5002 4.38769 12.5002 4.16667C12.5002 3.94566 12.4124 3.7337 12.2561 3.57742C12.0998 3.42114 11.8878 3.33334 11.6668 3.33334H1.66683C1.44582 3.33334 1.23385 3.42114 1.07757 3.57742C0.921293 3.7337 0.833496 3.94566 0.833496 4.16667C0.833496 4.38769 0.921293 4.59965 1.07757 4.75593C1.23385 4.91221 1.44582 5.00001 1.66683 5.00001ZM6.66683 7.50001C6.15104 7.50146 5.64833 7.66241 5.22761 7.96079C4.80689 8.25917 4.48876 8.68038 4.31683 9.16667H1.66683C1.44582 9.16667 1.23385 9.25447 1.07757 9.41075C0.921293 9.56703 0.833496 9.77899 0.833496 10C0.833496 10.221 0.921293 10.433 1.07757 10.5893C1.23385 10.7455 1.44582 10.8333 1.66683 10.8333H4.31683C4.46971 11.2657 4.73858 11.6477 5.09403 11.9376C5.44948 12.2274 5.87781 12.4138 6.33213 12.4765C6.78645 12.5392 7.24927 12.4757 7.66992 12.293C8.09057 12.1103 8.45286 11.8153 8.71712 11.4405C8.98138 11.0657 9.13744 10.6253 9.16821 10.1678C9.19899 9.71016 9.1033 9.25292 8.89161 8.84607C8.67992 8.43922 8.36039 8.09844 7.96799 7.86103C7.5756 7.62362 7.12546 7.49872 6.66683 7.50001ZM18.3335 9.16667H11.6668C11.4458 9.16667 11.2339 9.25447 11.0776 9.41075C10.9213 9.56703 10.8335 9.77899 10.8335 10C10.8335 10.221 10.9213 10.433 11.0776 10.5893C11.2339 10.7455 11.4458 10.8333 11.6668 10.8333H18.3335C18.5545 10.8333 18.7665 10.7455 18.9228 10.5893C19.079 10.433 19.1668 10.221 19.1668 10C19.1668 9.77899 19.079 9.56703 18.9228 9.41075C18.7665 9.25447 18.5545 9.16667 18.3335 9.16667ZM8.3335 15H1.66683C1.44582 15 1.23385 15.0878 1.07757 15.2441C0.921293 15.4004 0.833496 15.6123 0.833496 15.8333C0.833496 16.0544 0.921293 16.2663 1.07757 16.4226C1.23385 16.5789 1.44582 16.6667 1.66683 16.6667H8.3335C8.55451 16.6667 8.76647 16.5789 8.92275 16.4226C9.07903 16.2663 9.16683 16.0544 9.16683 15.8333C9.16683 15.6123 9.07903 15.4004 8.92275 15.2441C8.76647 15.0878 8.55451 15 8.3335 15ZM18.3335 15H15.6835C15.4869 14.444 15.1001 13.9754 14.5914 13.677C14.0828 13.3786 13.485 13.2696 12.9037 13.3693C12.3225 13.4691 11.7952 13.7711 11.4151 14.222C11.035 14.6728 10.8265 15.2436 10.8265 15.8333C10.8265 16.4231 11.035 16.9938 11.4151 17.4447C11.7952 17.8956 12.3225 18.1976 12.9037 18.2973C13.485 18.3971 14.0828 18.2881 14.5914 17.9897C15.1001 17.6913 15.4869 17.2227 15.6835 16.6667H18.3335C18.5545 16.6667 18.7665 16.5789 18.9228 16.4226C19.079 16.2663 19.1668 16.0544 19.1668 15.8333C19.1668 15.6123 19.079 15.4004 18.9228 15.2441C18.7665 15.0878 18.5545 15 18.3335 15Z" fill="#646569"/>
</svg>
