<svg width="32" height="32" viewBox="0 0 32 32" fill="none" xmlns="http://www.w3.org/2000/svg">
<rect x="0.25" y="0.25" width="31.5" height="31.5" rx="5.08333" fill="white" stroke="#DEDEDF" stroke-width="0.5"/>
<rect x="0.0268772" y="0.0268772" width="31.9462" height="31.9462" rx="5.30646" stroke="#DEDEDF" stroke-width="0.0537544"/>
<g clip-path="url(#clip0_425_16886)">
<path fill-rule="evenodd" clip-rule="evenodd" d="M17.1567 13.4173L18.0362 14.5644H18.2559L17.3957 13.4173H17.1567ZM17.0611 14.5644L16.2009 13.4173H15.9617L16.8413 14.5644H17.0611ZM17.4626 14.8033L15.5795 19.5541H15.3406L17.2237 14.8034L17.4626 14.8033ZM17.4626 14.5644L16.6022 13.4173H16.3632L17.2426 14.5644H17.4626ZM17.864 14.8033L15.9809 19.5539H15.7419L17.625 14.8033H17.864ZM17.864 14.5644L17.0036 13.4173H16.7647L17.6346 14.5644H17.864ZM18.2559 14.8033L16.3825 19.5539H16.1436L18.017 14.8033H18.2559ZM14.9486 19.5541L16.8222 14.8034H17.0611L15.1875 19.5541H14.9486ZM9.36625 16.0937V17.1929H10.3222C10.609 17.1929 10.8001 17.1739 10.9149 17.126C11.0774 17.0496 11.1538 16.8871 11.1729 16.6481C11.1729 16.4091 11.0869 16.2561 10.934 16.1702C10.8194 16.1224 10.6091 16.0937 10.3223 16.0937H9.36625ZM11.775 15.2813C12.1383 15.6158 12.3294 16.0651 12.3294 16.6482C12.3294 17.241 12.1287 17.6902 11.7081 17.9768C11.364 18.2256 10.886 18.3594 10.2935 18.3401H9.36625V19.5635H8.17144V14.8511H10.4561C10.9912 14.8511 11.4405 14.9945 11.775 15.2813ZM16.153 16.0937H14.8147V19.5635H13.5913V16.0937H12.3296V14.8511H16.153V16.0937ZM23.5132 14.8511V19.5635L22.3185 19.5541V17.2409L20.9324 19.5635L19.4984 17.2409V19.5541L18.3419 19.5635V14.8511H19.4984L20.923 17.2409L22.2898 14.8511H23.5132ZM5.73392 14.8511C5.41842 14.8511 5.11264 14.918 4.81616 15.0423C4.53897 15.1571 4.29051 15.329 4.06107 15.5489C3.86036 15.7593 3.6788 16.0174 3.55444 16.3041C3.43965 16.5908 3.38232 16.8872 3.38232 17.2123C3.38232 17.5277 3.43965 17.8335 3.55444 18.1299C3.67867 18.4071 3.86036 18.6557 4.06107 18.885C4.29051 19.0857 4.53897 19.2676 4.81616 19.3726C5.1125 19.5064 5.41842 19.5636 5.73392 19.5636C6.05886 19.5636 6.3552 19.5064 6.64197 19.3726C6.92873 19.2676 7.18691 19.0857 7.39719 18.885C7.61706 18.6559 7.78903 18.4071 7.90382 18.1299C8.02805 17.8336 8.09495 17.5277 8.09495 17.2123C8.09495 16.8872 8.02805 16.5909 7.90382 16.3041C7.79077 16.0191 7.61803 15.7616 7.39719 15.5489C7.18451 15.328 6.927 15.1553 6.64197 15.0423C6.3552 14.918 6.05886 14.8511 5.73392 14.8511ZM4.92137 18.0247C5.16039 18.2445 5.43758 18.3592 5.73392 18.3592C6.05886 18.3592 6.32661 18.2443 6.54633 18.0247C6.77577 17.7953 6.88085 17.5275 6.88085 17.2218C6.88085 16.9254 6.77564 16.6482 6.54633 16.4284C6.32647 16.2085 6.05886 16.0938 5.73392 16.0938C5.43758 16.0938 5.16039 16.2086 4.92137 16.4284C4.7015 16.6482 4.58685 16.9254 4.58685 17.2218C4.58685 17.5275 4.7015 17.7951 4.92137 18.0247ZM25.6163 14.8702L23.6568 19.5634H25.0331L25.4443 18.3591H26.8111L27.2413 19.5825H28.6178L26.639 14.87L25.6163 14.8702ZM25.7979 17.2887H26.4478L26.1132 16.3615L25.7979 17.2887Z" fill="#CA0088"/>
</g>
<defs>
<clipPath id="clip0_425_16886">
<rect width="26" height="26" fill="white" transform="translate(3 3.5)"/>
</clipPath>
</defs>
</svg>
