<svg width="20" height="20" viewBox="0 0 20 20" fill="none" xmlns="http://www.w3.org/2000/svg">
<g clip-path="url(#clip0_425_9866)">
<mask id="mask0_425_9866" style="mask-type:luminance" maskUnits="userSpaceOnUse" x="0" y="0" width="20" height="20">
<path d="M20 0H0V20H20V0Z" fill="white"/>
</mask>
<g mask="url(#mask0_425_9866)">
<path d="M3.93346 10.3834C3.60013 10.3834 3.3168 10.1584 3.2418 9.82507L3.0668 9.0584C2.9918 8.7334 2.73346 8.47507 2.4168 8.4084L1.63346 8.22507C1.3168 8.15841 1.0918 7.87508 1.0918 7.54174C1.0918 7.20841 1.3168 6.92507 1.65013 6.85008L2.4168 6.67508C2.7418 6.60008 3.00013 6.34174 3.0668 6.02507L3.25013 5.24174C3.3168 4.92507 3.60013 4.70007 3.93346 4.70007C4.2668 4.70007 4.55013 4.93341 4.62513 5.25841L4.80013 6.02507C4.87513 6.35007 5.13346 6.60842 5.45013 6.67508L6.23346 6.85841C6.55013 6.92507 6.77513 7.20842 6.77513 7.55008C6.77513 7.88342 6.55013 8.16674 6.22513 8.23341L5.45013 8.4084C5.12513 8.4834 4.8668 8.74173 4.80013 9.0584L4.6168 9.84173C4.55013 10.1584 4.2668 10.3834 3.93346 10.3834ZM3.4668 7.55008C3.65013 7.68342 3.80846 7.84174 3.9418 8.02507C4.07513 7.84174 4.23346 7.68342 4.4168 7.55008C4.23346 7.41675 4.07513 7.25841 3.9418 7.07507C3.80846 7.25841 3.65013 7.41675 3.4668 7.55008Z" fill="#525356"/>
<path d="M16.525 6.76671C16.3666 6.76671 16.2083 6.70838 16.0833 6.58338C15.8416 6.34171 15.8416 5.94171 16.0833 5.70004L17.2083 4.57504C17.5333 4.25004 17.5333 3.73338 17.2083 3.40838C16.8833 3.08338 16.3666 3.08338 16.0416 3.40838L14.9166 4.53338C14.675 4.77504 14.275 4.77504 14.0333 4.53338C13.7916 4.29171 13.7916 3.89171 14.0333 3.65004L15.1583 2.52504C15.9666 1.71671 17.2833 1.71671 18.0916 2.52504C18.9 3.33338 18.9 4.65004 18.0916 5.45838L16.9666 6.58338C16.8416 6.70838 16.6833 6.76671 16.525 6.76671Z" fill="#525356"/>
<path d="M3.8335 18.9501C3.2835 18.9501 2.72516 18.7418 2.3085 18.3168C1.46683 17.4751 1.46683 16.1084 2.3085 15.2668L8.63352 8.94178C8.87519 8.70011 9.27519 8.70011 9.51685 8.94178C9.75852 9.18345 9.75852 9.58345 9.51685 9.82511L3.19183 16.1501C2.84183 16.5001 2.84183 17.0834 3.19183 17.4334C3.54183 17.7834 4.11683 17.7834 4.47516 17.4334L10.8002 11.1084C11.0419 10.8668 11.4419 10.8668 11.6835 11.1084C11.9252 11.3501 11.9252 11.7501 11.6835 11.9918L5.3585 18.3168C4.94183 18.7334 4.3835 18.9501 3.8335 18.9501Z" fill="#525356"/>
<path d="M18.025 15.4334C17.625 15.4334 17.2417 15.2834 16.9583 14.9917L13.6333 11.6667L13.1167 12.1834C12.6 12.7334 11.575 12.7584 11 12.1834L8.46667 9.65006C7.8833 9.06673 7.8833 8.10841 8.46667 7.52508L8.975 7.01674L5.64164 3.68341C5.2333 3.29174 5.09164 2.67508 5.27497 2.13341C5.4583 1.59174 5.92497 1.20008 6.49164 1.11674C8.34167 0.850078 10.225 1.47508 11.55 2.80008L12.3667 3.61674L12.5667 3.41674C13.15 2.83341 14.1083 2.83341 14.6917 3.41674L17.225 5.95008C17.5 6.20841 17.6667 6.60008 17.6667 7.00841C17.6667 7.41674 17.5083 7.78341 17.225 8.06674L17.025 8.26674L17.8417 9.08339C19.1667 10.4084 19.7917 12.2917 19.525 14.1417C19.4417 14.7084 19.05 15.1751 18.5083 15.3584C18.35 15.4084 18.1833 15.4334 18.025 15.4334ZM13.6333 10.1584C13.7917 10.1584 13.95 10.2167 14.0667 10.3334L17.8417 14.1084C17.9167 14.1834 18.0167 14.2001 18.1167 14.1751C18.2 14.1417 18.275 14.0667 18.2833 13.9667C18.4917 12.5167 18 11.0167 16.95 9.97506L15.6917 8.71673C15.575 8.60006 15.5083 8.44173 15.5083 8.27508C15.5083 8.10841 15.575 7.95008 15.6917 7.83341L16.3333 7.19174C16.3833 7.14174 16.4083 7.08341 16.4083 7.01674C16.4083 6.95008 16.3833 6.89174 16.3417 6.85008L13.8 4.30841C13.7 4.20841 13.5417 4.20841 13.4417 4.30841L12.8 4.95008C12.5667 5.18341 12.15 5.18341 11.9167 4.95008L10.6583 3.69174C9.60834 2.64174 8.11664 2.15008 6.66664 2.35841C6.56664 2.37508 6.4833 2.44174 6.44997 2.54174C6.41664 2.63341 6.44997 2.73341 6.5083 2.80008L10.2917 6.58341C10.5333 6.82508 10.5333 7.22508 10.2917 7.46674L9.34167 8.41673C9.24167 8.51673 9.24167 8.67506 9.34167 8.77506L11.875 11.3084C11.975 11.4084 12.1333 11.4001 12.2167 11.3167L13.1333 10.4001C13.2 10.3167 13.2833 10.2501 13.3833 10.2084C13.4667 10.1751 13.55 10.1584 13.6333 10.1584Z" fill="#525356"/>
</g>
</g>
<defs>
<clipPath id="clip0_425_9866">
<rect width="20" height="20" fill="white"/>
</clipPath>
</defs>
</svg>
