<svg width="20" height="20" viewBox="0 0 20 20" fill="none" xmlns="http://www.w3.org/2000/svg">
<g clip-path="url(#clip0_425_9880)">
<mask id="mask0_425_9880" style="mask-type:luminance" maskUnits="userSpaceOnUse" x="0" y="0" width="20" height="20">
<path d="M20 0H0V20H20V0Z" fill="white"/>
</mask>
<g mask="url(#mask0_425_9880)">
<path d="M14.6836 8.01593H10.3086C9.96693 8.01593 9.68359 7.7326 9.68359 7.39093C9.68359 7.04926 9.96693 6.76593 10.3086 6.76593H14.6836C15.0253 6.76593 15.3086 7.04926 15.3086 7.39093C15.3086 7.7326 15.0336 8.01593 14.6836 8.01593Z" fill="#525356"/>
<path d="M5.93371 8.65025C5.77537 8.65025 5.61704 8.59192 5.49204 8.46692L4.86704 7.84193C4.62537 7.60026 4.62537 7.20026 4.86704 6.95859C5.10871 6.71693 5.50871 6.71693 5.75037 6.95859L5.93371 7.14193L7.36704 5.70859C7.60871 5.46693 8.00871 5.46693 8.25037 5.70859C8.49207 5.95026 8.49207 6.35026 8.25037 6.59193L6.37537 8.46692C6.25871 8.58359 6.10037 8.65025 5.93371 8.65025Z" fill="#525356"/>
<path d="M14.6836 13.8492H10.3086C9.96693 13.8492 9.68359 13.5659 9.68359 13.2242C9.68359 12.8826 9.96693 12.5992 10.3086 12.5992H14.6836C15.0253 12.5992 15.3086 12.8826 15.3086 13.2242C15.3086 13.5659 15.0336 13.8492 14.6836 13.8492Z" fill="#525356"/>
<path d="M5.93371 14.4836C5.77537 14.4836 5.61704 14.4252 5.49204 14.3002L4.86704 13.6752C4.62537 13.4336 4.62537 13.0336 4.86704 12.7919C5.10871 12.5502 5.50871 12.5502 5.75037 12.7919L5.93371 12.9752L7.36704 11.5419C7.60871 11.3002 8.00871 11.3002 8.25037 11.5419C8.49207 11.7836 8.49207 12.1836 8.25037 12.4252L6.37537 14.3002C6.25871 14.4169 6.10037 14.4836 5.93371 14.4836Z" fill="#525356"/>
<path d="M12.5001 18.9584H7.50008C2.97508 18.9584 1.04175 17.025 1.04175 12.5V7.50002C1.04175 2.97502 2.97508 1.04169 7.50008 1.04169H12.5001C17.0251 1.04169 18.9584 2.97502 18.9584 7.50002V12.5C18.9584 17.025 17.0251 18.9584 12.5001 18.9584ZM7.50008 2.29169C3.65841 2.29169 2.29175 3.65835 2.29175 7.50002V12.5C2.29175 16.3417 3.65841 17.7084 7.50008 17.7084H12.5001C16.3417 17.7084 17.7084 16.3417 17.7084 12.5V7.50002C17.7084 3.65835 16.3417 2.29169 12.5001 2.29169H7.50008Z" fill="#525356"/>
</g>
</g>
<defs>
<clipPath id="clip0_425_9880">
<rect width="20" height="20" fill="white"/>
</clipPath>
</defs>
</svg>
