<svg width="20" height="20" viewBox="0 0 20 20" fill="none" xmlns="http://www.w3.org/2000/svg">
<path d="M13.75 7.1919C13.4083 7.1919 13.125 6.90856 13.125 6.5669V5.4169C13.125 4.5419 12.75 3.6919 12.1 3.10023C11.4417 2.50023 10.5917 2.22523 9.69167 2.30856C8.19167 2.45023 6.875 3.98356 6.875 5.58356V6.3919C6.875 6.73356 6.59167 7.01689 6.25 7.01689C5.90833 7.01689 5.625 6.73356 5.625 6.3919V5.57523C5.625 3.33356 7.43333 1.2669 9.575 1.05856C10.825 0.941895 12.025 1.33356 12.9417 2.17523C13.85 3.00023 14.375 4.18356 14.375 5.4169V6.5669C14.375 6.90856 14.0917 7.1919 13.75 7.1919Z" fill="#525356"/>
<path d="M12.4999 18.9583H7.49985C3.64985 18.9583 2.93318 17.1667 2.74985 15.425L2.12485 10.4333C2.03318 9.53332 1.99985 8.24166 2.87485 7.27499C3.62485 6.44166 4.86652 6.04166 6.66652 6.04166H13.3332C15.1415 6.04166 16.3832 6.44999 17.1249 7.27499C17.9915 8.24166 17.9665 9.53332 17.8749 10.4167L17.2499 15.425C17.0665 17.1667 16.3499 18.9583 12.4999 18.9583ZM6.66652 7.29166C5.25818 7.29166 4.29152 7.56666 3.79985 8.11666C3.39152 8.56666 3.25818 9.25832 3.36652 10.2917L3.99152 15.2833C4.13318 16.6167 4.49985 17.7167 7.49985 17.7167H12.4999C15.4999 17.7167 15.8665 16.625 16.0082 15.3L16.6332 10.2917C16.7415 9.27499 16.6082 8.58332 16.1999 8.12499C15.7082 7.56666 14.7415 7.29166 13.3332 7.29166H6.66652Z" fill="#525356"/>
<path d="M12.8497 10.9586C12.3831 10.9586 12.0081 10.5836 12.0081 10.1253C12.0081 9.66696 12.3831 9.29196 12.8414 9.29196C13.2997 9.29196 13.6747 9.66696 13.6747 10.1253C13.6747 10.5836 13.3081 10.9586 12.8497 10.9586Z" fill="#525356"/>
<path d="M7.01647 10.9586C6.5498 10.9586 6.1748 10.5836 6.1748 10.1253C6.1748 9.66696 6.5498 9.29196 7.00814 9.29196C7.46647 9.29196 7.84147 9.66696 7.84147 10.1253C7.84147 10.5836 7.4748 10.9586 7.01647 10.9586Z" fill="#525356"/>
</svg>
