<svg width="20" height="20" viewBox="0 0 20 20" fill="none" xmlns="http://www.w3.org/2000/svg">
<g clip-path="url(#clip0_425_9894)">
<mask id="mask0_425_9894" style="mask-type:luminance" maskUnits="userSpaceOnUse" x="0" y="0" width="20" height="20">
<path d="M20 0H0V20H20V0Z" fill="white"/>
</mask>
<g mask="url(#mask0_425_9894)">
<path d="M6.25011 12.708C6.09178 12.708 5.93345 12.6496 5.80845 12.5246C5.56678 12.283 5.56678 11.883 5.80845 11.6413L8.47508 8.97463C8.60841 8.84129 8.78341 8.77463 8.97508 8.79129C9.15841 8.80796 9.32508 8.90796 9.43341 9.06629L10.3417 10.433L13.3001 7.47458C13.5417 7.23292 13.9417 7.23292 14.1834 7.47458C14.4251 7.71625 14.4251 8.11625 14.1834 8.35796L10.6834 11.858C10.5501 11.9913 10.3751 12.058 10.1834 12.0413C10.0001 12.0246 9.83341 11.9246 9.72508 11.7663L8.81675 10.3996L6.69178 12.5246C6.56678 12.6496 6.40845 12.708 6.25011 12.708Z" fill="#525356"/>
<path d="M13.7502 10.2084C13.4085 10.2084 13.1252 9.92502 13.1252 9.58335V8.54169H12.0835C11.7418 8.54169 11.4585 8.25835 11.4585 7.91669C11.4585 7.57502 11.7418 7.29169 12.0835 7.29169H13.7502C14.0918 7.29169 14.3752 7.57502 14.3752 7.91669V9.58335C14.3752 9.92502 14.0918 10.2084 13.7502 10.2084Z" fill="#525356"/>
<path d="M12.5001 18.9584H7.50008C2.97508 18.9584 1.04175 17.025 1.04175 12.5V7.50002C1.04175 2.97502 2.97508 1.04169 7.50008 1.04169H12.5001C17.0251 1.04169 18.9584 2.97502 18.9584 7.50002V12.5C18.9584 17.025 17.0251 18.9584 12.5001 18.9584ZM7.50008 2.29169C3.65841 2.29169 2.29175 3.65835 2.29175 7.50002V12.5C2.29175 16.3417 3.65841 17.7084 7.50008 17.7084H12.5001C16.3417 17.7084 17.7084 16.3417 17.7084 12.5V7.50002C17.7084 3.65835 16.3417 2.29169 12.5001 2.29169H7.50008Z" fill="#525356"/>
</g>
</g>
<defs>
<clipPath id="clip0_425_9894">
<rect width="20" height="20" fill="white"/>
</clipPath>
</defs>
</svg>
