<svg width="20" height="20" viewBox="0 0 20 20" fill="none" xmlns="http://www.w3.org/2000/svg">
<g clip-path="url(#clip0_425_9911)">
<mask id="mask0_425_9911" style="mask-type:luminance" maskUnits="userSpaceOnUse" x="0" y="0" width="20" height="20">
<path d="M20 0H0V20H20V0Z" fill="white"/>
</mask>
<g mask="url(#mask0_425_9911)">
<path d="M10.0002 13.125C8.27524 13.125 6.87524 11.725 6.87524 10C6.87524 8.275 8.27524 6.875 10.0002 6.875C11.7252 6.875 13.1252 8.275 13.1252 10C13.1252 11.725 11.7252 13.125 10.0002 13.125ZM10.0002 8.125C8.96691 8.125 8.12524 8.96667 8.12524 10C8.12524 11.0333 8.96691 11.875 10.0002 11.875C11.0336 11.875 11.8752 11.0333 11.8752 10C11.8752 8.96667 11.0336 8.125 10.0002 8.125Z" fill="#525356"/>
<path d="M12.6751 18.4919C12.5001 18.4919 12.3251 18.4669 12.1501 18.4253C11.6334 18.2836 11.2001 17.9586 10.9251 17.5003L10.8251 17.3336C10.3334 16.4836 9.65841 16.4836 9.16675 17.3336L9.07508 17.4919C8.80008 17.9586 8.36675 18.2919 7.85008 18.4253C7.32508 18.5669 6.78342 18.4919 6.32508 18.2169L4.89175 17.3919C4.38341 17.1003 4.01675 16.6253 3.85841 16.0503C3.70842 15.4753 3.78341 14.8836 4.07508 14.3753C4.31675 13.9503 4.38341 13.5669 4.24175 13.3253C4.10008 13.0836 3.74175 12.9419 3.25008 12.9419C2.03341 12.9419 1.04175 11.9503 1.04175 10.7336V9.26693C1.04175 8.05026 2.03341 7.05859 3.25008 7.05859C3.74175 7.05859 4.10008 6.91693 4.24175 6.67526C4.38341 6.43359 4.32508 6.05026 4.07508 5.62526C3.78341 5.11693 3.70842 4.51693 3.85841 3.95026C4.00841 3.37526 4.37508 2.90026 4.89175 2.60859L6.33342 1.78359C7.27508 1.22526 8.51675 1.55026 9.08342 2.50859L9.18342 2.67526C9.67508 3.52526 10.3501 3.52526 10.8417 2.67526L10.9334 2.51693C11.5001 1.55026 12.7417 1.22526 13.6917 1.79193L15.1251 2.61693C15.6334 2.90859 16.0001 3.38359 16.1584 3.95859C16.3084 4.53359 16.2334 5.12526 15.9417 5.63359C15.7001 6.05859 15.6334 6.44193 15.7751 6.68359C15.9167 6.92526 16.2751 7.06693 16.7667 7.06693C17.9834 7.06693 18.9751 8.05859 18.9751 9.27527V10.7419C18.9751 11.9586 17.9834 12.9503 16.7667 12.9503C16.2751 12.9503 15.9167 13.0919 15.7751 13.3336C15.6334 13.5753 15.6917 13.9586 15.9417 14.3836C16.2334 14.8919 16.3167 15.4919 16.1584 16.0586C16.0084 16.6336 15.6417 17.1086 15.1251 17.4003L13.6834 18.2253C13.3667 18.4003 13.0251 18.4919 12.6751 18.4919ZM10.0001 15.4086C10.7417 15.4086 11.4334 15.8753 11.9084 16.7003L12.0001 16.8586C12.1001 17.0336 12.2667 17.1586 12.4667 17.2086C12.6667 17.2586 12.8667 17.2336 13.0334 17.1336L14.4751 16.3003C14.6917 16.1753 14.8584 15.9669 14.9251 15.7169C14.9917 15.4669 14.9584 15.2086 14.8334 14.9919C14.3584 14.1753 14.3001 13.3336 14.6667 12.6919C15.0334 12.0503 15.7917 11.6836 16.7417 11.6836C17.2751 11.6836 17.7001 11.2586 17.7001 10.7253V9.2586C17.7001 8.7336 17.2751 8.30026 16.7417 8.30026C15.7917 8.30026 15.0334 7.93359 14.6667 7.29193C14.3001 6.65026 14.3584 5.80859 14.8334 4.99193C14.9584 4.77526 14.9917 4.51693 14.9251 4.26693C14.8584 4.01693 14.7001 3.81693 14.4834 3.68359L13.0417 2.85859C12.6834 2.64193 12.2084 2.76693 11.9917 3.13359L11.9001 3.29193C11.4251 4.11693 10.7334 4.58359 9.99175 4.58359C9.25008 4.58359 8.55841 4.11693 8.08342 3.29193L7.99175 3.12526C7.78342 2.77526 7.31675 2.65026 6.95842 2.85859L5.51675 3.69193C5.30008 3.81693 5.13341 4.02526 5.06675 4.27526C5.00008 4.52526 5.03341 4.78359 5.15841 5.00026C5.63341 5.81693 5.69175 6.65859 5.32508 7.30026C4.95841 7.94193 4.20008 8.30859 3.25008 8.30859C2.71675 8.30859 2.29175 8.7336 2.29175 9.26693V10.7336C2.29175 11.2586 2.71675 11.6919 3.25008 11.6919C4.20008 11.6919 4.95841 12.0586 5.32508 12.7003C5.69175 13.3419 5.63341 14.1836 5.15841 15.0003C5.03341 15.2169 5.00008 15.4753 5.06675 15.7253C5.13341 15.9753 5.29175 16.1753 5.50842 16.3086L6.95008 17.1336C7.12508 17.2419 7.33341 17.2669 7.52508 17.2169C7.72508 17.1669 7.89175 17.0336 8.00008 16.8586L8.09175 16.7003C8.56675 15.8836 9.25842 15.4086 10.0001 15.4086Z" fill="#525356"/>
</g>
</g>
<defs>
<clipPath id="clip0_425_9911">
<rect width="20" height="20" fill="white"/>
</clipPath>
</defs>
</svg>
