<svg width="12" height="6" viewBox="0 0 12 6" fill="none" xmlns="http://www.w3.org/2000/svg">
<path d="M5.98902 5.99933C5.75585 5.99979 5.52987 5.91841 5.35033 5.76933L0.360516 1.76933C0.156716 1.59959 0.0285529 1.35568 0.00422288 1.09125C-0.0201072 0.826827 0.0613883 0.563546 0.230781 0.359329C0.400174 0.155112 0.643588 0.0266886 0.907476 0.00230892C1.17136 -0.0220708 1.43411 0.0595905 1.63791 0.229329L5.98902 3.70933L10.3401 0.38933C10.4422 0.306264 10.5597 0.244232 10.6858 0.206801C10.8118 0.169369 10.9441 0.157275 11.0748 0.171214C11.2056 0.185153 11.3323 0.22485 11.4477 0.288024C11.5631 0.351198 11.6649 0.436603 11.7473 0.53933C11.8387 0.642151 11.9079 0.762777 11.9506 0.893651C11.9933 1.02452 12.0086 1.16283 11.9954 1.29989C11.9823 1.43695 11.9411 1.56982 11.8744 1.69018C11.8076 1.81054 11.7168 1.91578 11.6075 1.99933L6.61774 5.82933C6.43303 5.95484 6.21167 6.0147 5.98902 5.99933Z" fill="#C6C8CA"/>
</svg>
